# xmcd
# 
# Track frame offsets:
#     150
#     23307
#     44412
#     67710
#     88975
#     106232
#     139845
#     159315
#     179580
#     201577
#     216862
#     238370
# 
# Disc length: 3387
# 
# Revision: 5
# Processed by: cddbd v1.5.2PL0 Copyright (c) Steve Scherf et al.
# Submitted via: fre:ac v1.0.17
# 
DISCID=a90d390c
DTITLE=Converse, Vince - One Step Ahead
DYEAR=1999
DGENRE=Blues
TTITLE0=One Step Ahead
TTITLE1=She Thing
TTITLE2=Sleeper
TTITLE3=Equality
TTITLE4=Back To Baby
TTITLE5=Recession Blues
TTITLE6=Give It Everything You Got
TTITLE7=Drown Yourself In The River
TTITLE8=I Ain't Superstitious
TTITLE9=SNAFU
TTITLE10=Someone Else Instead
TTITLE11=Lonesome
EXTD=
EXTT0=
EXTT1=
EXTT2=
EXTT3=
EXTT4=
EXTT5=
EXTT6=
EXTT7=
EXTT8=
EXTT9=
EXTT10=
EXTT11=
PLAYORDER=
